<svg clip-rule="evenodd" fill-rule="evenodd" stroke-linejoin="round" stroke-miterlimit="2" viewBox="0 0 211 75" xmlns="http://www.w3.org/2000/svg"><g transform="translate(314.606 -105.629)"><g fill-rule="nonzero"><path d="m-269.023 117.997h-29.389c-8.907 0-16.194 7.287-16.194 16.194v45.582h61.777v-45.582c0-8.907-7.289-16.194-16.194-16.194" fill="#ed1d24"/><path d="m-269.773 119.935c0 7.701-6.244 13.945-13.945 13.945s-13.944-6.244-13.944-13.945 6.243-13.945 13.944-13.945 13.945 6.244 13.945 13.945" fill="#ed1d24"/><path d="m-274.058 119.935c0 5.334-4.324 9.66-9.66 9.66-5.335 0-9.659-4.326-9.659-9.66 0-5.335 4.324-9.659 9.659-9.659 5.336 0 9.66 4.324 9.66 9.659" fill="#fff"/><path d="m-279.306 119.935c0 2.436-1.975 4.413-4.413 4.413-2.436 0-4.412-1.977-4.412-4.413s1.976-4.413 4.412-4.413c2.438 0 4.413 1.977 4.413 4.413" fill="#ed1d24"/><path d="m-272.641 157.611v-9.446h-7.366v-1.912h7.366v-8.771h-22.154v8.771h7.365v1.912h-7.365v9.446h-14.395v5.848h50.943v-5.848z" fill="#fff"/><path d="m93.728 63.363c-.298-.285-.586-.506-.865-.662s-.635-.235-1.069-.235c-.543 0-.988.134-1.335.398-.345.266-.621.601-.824 1.008s-.342.848-.417 1.324c-.074.474-.112.923-.112 1.342 0 .45.038.914.112 1.397.075.482.211.918.408 1.312.196.394.465.721.803.978.339.258.768.387 1.283.387.475 0 .876-.085 1.201-.255.326-.169.659-.41 1-.722l-.245 4.296c-.422.189-.829.329-1.223.418-.394.088-.821.132-1.283.132-.855 0-1.662-.164-2.422-.49-.761-.325-1.426-.813-1.996-1.466-.569-.651-1.025-1.465-1.364-2.442-.34-.978-.509-2.125-.509-3.442 0-1.14.118-2.134.356-2.983.239-.848.55-1.572.937-2.169s.824-1.081 1.314-1.454c.488-.374.983-.666 1.486-.877.501-.209.983-.356 1.445-.438.462-.08.862-.121 1.201-.121.367 0 .726.026 1.079.08.353.056.7.15 1.039.286zm92.52 3.177c0-.936.109-1.877.326-2.821.218-.942.561-1.795 1.029-2.554.468-.76 1.072-1.377 1.813-1.854.739-.474 1.639-.712 2.698-.712 1.058 0 1.957.238 2.697.712.74.477 1.343 1.094 1.813 1.854.468.759.81 1.612 1.027 2.554.218.944.327 1.885.327 2.821s-.109 1.877-.327 2.821c-.217.942-.559 1.793-1.027 2.554-.47.76-1.073 1.378-1.813 1.854-.74.474-1.639.712-2.697.712-1.059 0-1.959-.238-2.698-.712-.741-.476-1.345-1.094-1.813-1.854-.468-.761-.811-1.612-1.029-2.554-.217-.944-.326-1.885-.326-2.821zm-53.08 0c0-.936.108-1.877.326-2.821.216-.942.56-1.795 1.028-2.554.468-.76 1.071-1.377 1.811-1.854.74-.474 1.639-.712 2.699-.712 1.058 0 1.957.238 2.697.712.74.477 1.343 1.094 1.813 1.854.468.759.809 1.612 1.027 2.554.219.944.326 1.885.326 2.821s-.108 1.877-.326 2.821c-.218.942-.559 1.793-1.027 2.554-.47.76-1.073 1.378-1.813 1.854-.74.474-1.639.712-2.697.712-1.06 0-1.959-.238-2.699-.712-.74-.476-1.343-1.094-1.811-1.854-.468-.761-.813-1.612-1.028-2.554-.219-.944-.326-1.885-.326-2.821zm-37.445 0c0-.936.109-1.877.326-2.821.218-.942.559-1.795 1.029-2.554.468-.76 1.072-1.377 1.812-1.854.74-.474 1.639-.712 2.697-.712 1.061 0 1.959.238 2.699.712.74.477 1.343 1.094 1.811 1.854.47.759.812 1.612 1.029 2.554.217.944.327 1.885.327 2.821s-.11 1.877-.327 2.821c-.217.942-.559 1.793-1.029 2.554-.468.76-1.071 1.378-1.811 1.854-.74.474-1.638.712-2.699.712-1.058 0-1.957-.238-2.697-.712-.74-.476-1.344-1.094-1.812-1.854-.47-.761-.811-1.612-1.029-2.554-.217-.944-.326-1.885-.326-2.821zm104.249-7.677h3.949l3.321 9.244.04-.041c-.08-.895-.18-1.777-.296-2.647-.114-.869-.172-1.751-.172-2.646v-3.91h3.991v15.353h-3.991l-3.096-8.857-.039.039c.054.733.116 1.453.183 2.159.068.706.103 1.425.103 2.158v4.501h-3.992zm-46.648 15.353-2.3-6.394-.041.041c.014.38.028.757.041 1.13.014.374.02.75.02 1.13v4.093h-4.154v-15.353h4.012c.896 0 1.723.074 2.484.224.76.149 1.415.418 1.965.803.55.388.98.911 1.292 1.569s.468 1.497.468 2.515c0 .855-.189 1.63-.57 2.321-.38.692-.983 1.201-1.811 1.527l3.095 6.394zm-37.443 0-2.302-6.394-.04.041c.014.38.027.757.04 1.13.014.374.021.75.021 1.13v4.093h-4.154v-15.353h4.013c.895 0 1.722.074 2.483.224.76.149 1.415.418 1.965.803.548.388.98.911 1.293 1.569.312.658.467 1.497.467 2.515 0 .855-.19 1.63-.57 2.321-.38.692-.983 1.201-1.811 1.527l3.095 6.394zm64.239-15.353h4.154v15.353h-4.154zm-58.374 15.353v-15.352h3.786c.909 0 1.754.081 2.534.243.782.164 1.459.445 2.036.845.578.4 1.029.938 1.356 1.609.324.671.488 1.51.488 2.515 0 1.004-.146 1.839-.438 2.505-.291.665-.703 1.194-1.232 1.588-.53.394-1.168.668-1.913.824-.747.156-1.568.221-2.465.194v5.029zm50.169 0v-11.606h-2.281v-3.747h8.818v3.747h-2.383v11.606zm-6.068-.001-.306-1.975h-2.789l-.347 1.975h-4.275l3.684-15.351h5.072l3.257 15.351zm24.637-7.675c0 .162.003.377.011.642.007.264.025.546.06.844.034.3.085.601.153.906.068.306.162.584.285.836.121.25.274.455.459.609.182.157.403.235.662.235.257 0 .477-.078.661-.235.183-.154.336-.359.457-.609.123-.252.218-.53.286-.836.068-.305.118-.606.152-.906.035-.298.056-.58.062-.844.006-.265.01-.48.01-.642 0-.164-.004-.376-.01-.641s-.027-.547-.062-.845c-.034-.3-.084-.601-.152-.906-.068-.306-.163-.585-.286-.835-.121-.251-.274-.456-.457-.612-.184-.156-.404-.233-.661-.233-.259 0-.48.077-.662.233-.185.156-.338.361-.459.612-.123.25-.217.529-.285.835-.068.305-.119.606-.153.906-.035.298-.053.58-.06.845-.008.265-.011.477-.011.641zm-53.082 0c0 .162.004.377.012.642.006.264.026.546.06.844.034.3.085.601.153.906.067.306.162.584.285.836.123.25.274.455.458.609.183.157.404.235.663.235.256 0 .477-.078.661-.235.183-.154.336-.359.459-.609.121-.252.216-.53.284-.836.067-.305.119-.606.152-.906.035-.298.055-.58.062-.844.006-.265.009-.48.009-.642 0-.164-.003-.376-.009-.641-.007-.265-.027-.547-.062-.845-.033-.3-.085-.601-.152-.906-.068-.306-.163-.585-.284-.835-.123-.251-.276-.456-.459-.612-.184-.156-.405-.233-.661-.233-.259 0-.48.077-.663.233-.184.156-.335.361-.458.612-.123.25-.218.529-.285.835-.068.305-.119.606-.153.906-.034.298-.054.58-.06.845-.008.265-.012.477-.012.641zm-37.443 0c0 .162.003.377.009.642.008.264.027.546.062.844.035.3.085.601.153.906.068.306.162.584.285.836.121.25.274.455.458.609.183.157.404.235.661.235.258 0 .479-.078.664-.235.182-.154.335-.359.456-.609.123-.252.218-.53.286-.836.067-.305.118-.606.152-.906.033-.298.054-.58.062-.844.006-.265.009-.48.009-.642 0-.164-.003-.376-.009-.641-.008-.265-.029-.547-.062-.845-.034-.3-.085-.601-.152-.906-.068-.306-.163-.585-.286-.835-.121-.251-.274-.456-.456-.612-.185-.156-.406-.233-.664-.233-.257 0-.478.077-.661.233-.184.156-.337.361-.458.612-.123.25-.217.529-.285.835-.068.305-.118.606-.153.906-.035.298-.054.58-.062.845-.006.265-.009.477-.009.641zm65.094 2.443-.448-3.563c-.069-.476-.123-.957-.164-1.445-.039-.489-.088-.971-.141-1.447h-.041c-.068.476-.13.958-.183 1.447-.055.488-.123.969-.203 1.445l-.571 3.563zm-13.744-3.014c.271 0 .512-.054.723-.162.21-.109.386-.256.528-.438.144-.183.252-.394.326-.631.074-.238.112-.479.112-.723 0-.679-.182-1.165-.548-1.456-.367-.292-.836-.424-1.406-.397v3.786zm-37.444 0c.271 0 .513-.054.723-.162.21-.109.387-.256.53-.438.142-.183.251-.394.324-.631.074-.238.112-.479.112-.723 0-.679-.182-1.165-.55-1.456-.365-.292-.834-.424-1.404-.397v3.786zm13.886-1.954c0-.489-.129-.92-.386-1.292-.259-.374-.644-.561-1.161-.561l-.306.02v3.543c.57.028 1.023-.109 1.355-.407.333-.297.498-.732.498-1.303zm21.237-20.088c-.299-.285-.588-.506-.865-.662-.279-.156-.635-.235-1.069-.235-.543 0-.988.133-1.335.398-.344.264-.62.6-.824 1.008-.203.407-.341.848-.417 1.324-.074.474-.112.923-.112 1.343 0 .449.038.914.112 1.394.076.482.211.921.407 1.315.197.394.464.718.805.977.339.258.767.387 1.283.387.474 0 .876-.085 1.2-.255.326-.17.659-.41.998-.723l-.244 4.297c-.421.19-.828.328-1.222.416s-.821.133-1.282.133c-.856 0-1.663-.162-2.422-.489-.762-.326-1.427-.814-1.997-1.465-.569-.653-1.025-1.466-1.364-2.443-.34-.979-.508-2.124-.508-3.442 0-1.14.117-2.134.356-2.983.236-.848.549-1.571.936-2.168.387-.598.824-1.083 1.312-1.457.49-.372.985-.665 1.488-.874.501-.21.984-.358 1.445-.439.462-.081.862-.121 1.201-.121.367 0 .727.027 1.079.081.353.055.701.149 1.039.285zm-63.669 10.853v-15.352h7.33v3.624h-3.176v2.219h2.972v3.624h-2.972v5.885zm41.984-15.353h3.951l3.319 9.244.041-.041c-.082-.895-.182-1.777-.297-2.648-.114-.868-.173-1.75-.173-2.645v-3.91h3.992v15.352h-3.992l-3.095-8.856-.04.041c.054.733.116 1.451.183 2.157.068.706.101 1.426.101 2.159v4.499h-3.99zm-25.594 0h3.949l3.321 9.244.039-.041c-.08-.895-.18-1.777-.295-2.648-.114-.868-.173-1.75-.173-2.645v-3.91h3.992v15.352h-3.992l-3.095-8.856-.04.041c.054.733.116 1.451.183 2.157.068.706.101 1.426.101 2.159v4.499h-3.99zm49.743 0h7.717v3.624h-3.563v2.139h3.196v3.623h-3.196v2.342h3.563v3.624h-7.717zm-56.34 0h4.154v15.352h-4.154zm26.531 15.352-.306-1.974h-2.79l-.347 1.974h-4.275l3.686-15.352h5.07l3.258 15.352zm-.795-5.232-.447-3.563c-.067-.476-.123-.957-.162-1.445-.042-.49-.09-.971-.144-1.447h-.041c-.068.476-.129.957-.183 1.447-.053.488-.123.969-.203 1.445l-.571 3.563zm-29.095-14.202-2.301-6.394-.041.041c.014.38.027.757.041 1.13.013.374.02.75.02 1.13v4.093h-4.154v-15.353h4.013c.895 0 1.722.074 2.483.224.76.149 1.416.418 1.963.803.55.388.982.911 1.294 1.569.313.658.468 1.497.468 2.515 0 .855-.19 1.629-.57 2.321s-.983 1.201-1.811 1.527l3.095 6.394zm18.182-15.354h4.154v15.353h-4.154zm23.07 15.353-1.12-6.231c-.109-.624-.19-1.212-.245-1.76-.053-.551-.115-1.091-.182-1.619h-.042c-.053.528-.097 1.068-.132 1.619-.033.548-.097 1.136-.193 1.76l-.875 6.231h-4.031l-3.422-15.353h4.093l.915 6.191c.083.57.156 1.136.226 1.7.068.562.135 1.13.203 1.7h.041c.068-.57.115-1.138.142-1.7.027-.564.095-1.13.203-1.7l1.08-6.191h3.563l1.059 6.191c.094.57.177 1.127.244 1.668.068.545.143 1.101.224 1.671h.041c.068-.476.118-.997.153-1.568.033-.57.097-1.161.193-1.771l.916-6.191h4.052l-3.094 15.353zm21.501 0v-6.516l-3.787-8.837h4.316l1.425 4.746h.041l1.447-4.746h4.296l-3.584 8.837v6.516zm-37.974 0v-15.353h4.154v11.728h3.117v3.625zm-12.257-.001-.305-1.975h-2.79l-.347 1.975h-4.275l3.686-15.351h5.07l3.257 15.351zm42.962 0-.305-1.975h-2.79l-.347 1.975h-4.275l3.686-15.351h5.07l3.257 15.351zm-43.756-5.232-.448-3.563c-.068-.476-.123-.957-.162-1.445-.041-.49-.09-.971-.143-1.447h-.041c-.068.476-.13.957-.183 1.447-.054.488-.123.969-.203 1.445l-.571 3.563zm42.962 0-.448-3.563c-.067-.476-.122-.957-.162-1.445-.041-.49-.09-.971-.143-1.447h-.041c-.068.476-.129.957-.183 1.447-.053.488-.123.969-.203 1.445l-.571 3.563zm-56.706-3.013c.271 0 .512-.054.723-.163.21-.108.387-.255.53-.437.142-.183.25-.394.324-.631.077-.238.112-.479.112-.724 0-.678-.182-1.164-.549-1.455-.366-.292-.834-.424-1.405-.397v3.786zm2.178-26.542h3.951l3.319 9.244.041-.041c-.082-.895-.181-1.777-.297-2.648-.114-.868-.173-1.75-.173-2.645v-3.91h3.992v15.353h-3.992l-3.095-8.857-.039.039c.053.735.115 1.453.183 2.159.067.706.102 1.425.102 2.159v4.5h-3.992zm44.795 0h3.949l3.321 9.244.041-.041c-.082-.895-.181-1.777-.297-2.648-.114-.868-.173-1.75-.173-2.645v-3.91h3.992v15.353h-3.992l-3.095-8.857-.039.039c.053.735.115 1.453.183 2.159.067.706.102 1.425.102 2.159v4.5h-3.992zm-31.519-.002h3.339c1.182 0 2.224.182 3.125.541.903.359 1.662.868 2.282 1.527.618.658 1.081 1.459 1.393 2.403.314.942.47 1.992.47 3.146 0 1.18-.117 2.192-.347 3.033-.23.842-.532 1.548-.906 2.118-.373.569-.804 1.028-1.292 1.374s-.992.607-1.507.784c-.517.176-1.029.291-1.538.347-.509.053-.974.081-1.394.081h-3.625zm-19.873.001h4.154v15.353h-4.154zm32.476 0h4.154v15.353h-4.154zm13.255 15.352-.305-1.975h-2.79l-.346 1.975h-4.276l3.686-15.351h5.07l3.257 15.351zm-21.704-3.705c.474 0 .859-.132 1.15-.397.292-.265.516-.591.674-.977.153-.388.259-.801.314-1.242.054-.441.081-.847.081-1.212 0-.421-.027-.865-.081-1.333-.055-.468-.161-.9-.314-1.294-.158-.392-.382-.718-.674-.977-.291-.259-.676-.388-1.15-.388zm20.911-1.527-.449-3.563c-.068-.476-.122-.957-.162-1.445-.04-.489-.088-.971-.142-1.447h-.042c-.068.476-.129.958-.183 1.447-.054.488-.123.969-.202 1.445l-.571 3.563z" transform="translate(-314.606 105.629)"/></g><path d="m-241.405 179.925v-74.294" fill="none"/><path d="m-242.406 105.629h2.004v74.293h-2.004z" fill-rule="nonzero"/></g></svg>