<svg width="146" height="146" viewBox="0 0 146 146" fill="none" xmlns="http://www.w3.org/2000/svg">
<rect x="1" y="1" width="144" height="144" rx="72" fill="white" stroke="#EBEFF6" stroke-width="1.5"/>
<g filter="url(#filter0_d_1302_2782)">
<g clip-path="url(#clip0_1302_2782)">
<rect x="28" y="28" width="90" height="90" rx="45" fill="white"/>
<path d="M113 25H34C29.5817 25 26 28.5817 26 33V113C26 117.418 29.5817 121 34 121H113C117.418 121 121 117.418 121 113V33C121 28.5817 117.418 25 113 25Z" fill="#3AE00C"/>
<path d="M73.6398 88.7702C65.074 88.7702 58.1525 81.7565 58.1525 73.1198C58.1525 64.4831 65.0931 57.4695 73.6398 57.4695C81.307 57.4695 87.674 63.1113 88.8977 70.5114H104.5C103.18 54.436 89.8728 41.7998 73.6207 41.7998C56.5082 41.7998 42.627 55.8271 42.627 73.1198C42.627 90.4125 56.5082 104.44 73.6207 104.44C89.8728 104.44 103.18 91.8036 104.5 75.7282H88.8786C87.6549 83.1283 81.307 88.7702 73.6398 88.7702Z" fill="white"/>
</g>
<rect x="28.5" y="28.5" width="89" height="89" rx="44.5" stroke="black"/>
</g>
<defs>
<filter id="filter0_d_1302_2782" x="24" y="28" width="98" height="98" filterUnits="userSpaceOnUse" color-interpolation-filters="sRGB">
<feFlood flood-opacity="0" result="BackgroundImageFix"/>
<feColorMatrix in="SourceAlpha" type="matrix" values="0 0 0 0 0 0 0 0 0 0 0 0 0 0 0 0 0 0 127 0" result="hardAlpha"/>
<feOffset dy="4"/>
<feGaussianBlur stdDeviation="2"/>
<feComposite in2="hardAlpha" operator="out"/>
<feColorMatrix type="matrix" values="0 0 0 0 0 0 0 0 0 0 0 0 0 0 0 0 0 0 0.25 0"/>
<feBlend mode="normal" in2="BackgroundImageFix" result="effect1_dropShadow_1302_2782"/>
<feBlend mode="normal" in="SourceGraphic" in2="effect1_dropShadow_1302_2782" result="shape"/>
</filter>
<clipPath id="clip0_1302_2782">
<rect x="28" y="28" width="90" height="90" rx="45" fill="white"/>
</clipPath>
</defs>
</svg>
