<svg xmlns="http://www.w3.org/2000/svg" xmlns:xlink="http://www.w3.org/1999/xlink"
  viewBox="0 0 61.8 61.8">
  <defs>
    <linearGradient x1="17" y1="6.755" x2="31" y2="6.755" gradientUnits="userSpaceOnUse"
      id="color-1">
      <stop offset="0" stop-color="#f08400"></stop>
      <stop offset="0.406" stop-color="#ec9600"></stop>
      <stop offset="1" stop-color="#e6b801"></stop>
    </linearGradient>
    <linearGradient x1="27.88413" y1="9.16348" x2="38.13707" y2="9.16287"
      gradientUnits="userSpaceOnUse" id="color-2">
      <stop offset="0" stop-color="#e8ac01"></stop>
      <stop offset="0.461" stop-color="#d7be09"></stop>
      <stop offset="0.964" stop-color="#bfd715"></stop>
      <stop offset="1" stop-color="#a6d925"></stop>
    </linearGradient>
    <linearGradient x1="35.18591" y1="12.62856" x2="43.65485" y2="19.0112"
      gradientUnits="userSpaceOnUse" id="color-3">
      <stop offset="0" stop-color="#c6d012"></stop>
      <stop offset="1" stop-color="#2bda79"></stop>
    </linearGradient>
    <linearGradient x1="41.245" y1="18.83" x2="41.245" y2="31" gradientUnits="userSpaceOnUse"
      id="color-4">
      <stop offset="0" stop-color="#47d867"></stop>
      <stop offset="1" stop-color="#13c2ab"></stop>
    </linearGradient>
    <linearGradient x1="41.51961" y1="28.14515" x2="35.43461" y2="38.68468"
      gradientUnits="userSpaceOnUse" id="color-5">
      <stop offset="0" stop-color="#17c6a3"></stop>
      <stop offset="0.314" stop-color="#21b4b5"></stop>
      <stop offset="0.945" stop-color="#3c84e5"></stop>
      <stop offset="1" stop-color="#3f80e9"></stop>
    </linearGradient>
    <linearGradient x1="37.09985" y1="36.34961" x2="26.56032" y2="42.43461"
      gradientUnits="userSpaceOnUse" id="color-6">
      <stop offset="0" stop-color="#368fda"></stop>
      <stop offset="0.246" stop-color="#4887db"></stop>
      <stop offset="0.74" stop-color="#7874dd"></stop>
      <stop offset="1" stop-color="#9368de"></stop>
    </linearGradient>
    <linearGradient x1="17" y1="41.245" x2="29.17" y2="41.245" gradientUnits="userSpaceOnUse"
      id="color-7">
      <stop offset="0" stop-color="#df51b4"></stop>
      <stop offset="0.233" stop-color="#cd57bc"></stop>
      <stop offset="0.701" stop-color="#9d65d2"></stop>
      <stop offset="1" stop-color="#7c6fe1"></stop>
    </linearGradient>
    <linearGradient x1="9.86243" y1="38.83699" x2="20.11537" y2="38.83638"
      gradientUnits="userSpaceOnUse" id="color-8">
      <stop offset="0" stop-color="#e84e77"></stop>
      <stop offset="1" stop-color="#cb57bd"></stop>
    </linearGradient>
    <linearGradient x1="11.65039" y1="37.09985" x2="5.56539" y2="26.56032"
      gradientUnits="userSpaceOnUse" id="color-9">
      <stop offset="0" stop-color="#e35084"></stop>
      <stop offset="0.198" stop-color="#e74f72"></stop>
      <stop offset="0.595" stop-color="#f14c42"></stop>
      <stop offset="0.973" stop-color="#fb4910"></stop>
      <stop offset="1" stop-color="#e4c402"></stop>
    </linearGradient>
    <linearGradient x1="6.755" y1="29.17" x2="6.755" y2="17" gradientUnits="userSpaceOnUse"
      id="color-10">
      <stop offset="0" stop-color="#f64b29"></stop>
      <stop offset="0.508" stop-color="#f84d17"></stop>
      <stop offset="1" stop-color="#fb5001"></stop>
    </linearGradient>
    <linearGradient x1="6.48039" y1="19.85485" x2="12.56539" y2="9.31532"
      gradientUnits="userSpaceOnUse" id="color-11">
      <stop offset="0" stop-color="#fa4f0a"></stop>
      <stop offset="0.885" stop-color="#f76101"></stop>
      <stop offset="1" stop-color="#f76400"></stop>
    </linearGradient>
    <linearGradient x1="10.90001" y1="11.64989" x2="19.85472" y2="6.47989"
      gradientUnits="userSpaceOnUse" id="color-12">
      <stop offset="0" stop-color="#f86002"></stop>
      <stop offset="0.478" stop-color="#f47201"></stop>
      <stop offset="1" stop-color="#ef8b00"></stop>
    </linearGradient>
  </defs>
  <g fill="none" fill-rule="nonzero" stroke="none" stroke-width="1" stroke-linecap="butt"
    stroke-linejoin="miter" stroke-miterlimit="10" stroke-dasharray="" stroke-dashoffset="0"
    font-family="none" font-weight="none" font-size="none" text-anchor="none"
    style="mix-blend-mode: normal">
    <g transform="scale(5.33333,5.33333)">
      <path
        d="M29.17,4.68l1.83,3.32l-3.12,1.51c-3.423,-0.911 -6.246,-0.403 -7.76,0l-3.12,-1.51l1.83,-3.32c4.041,-1.102 7.814,-0.689 10.34,0z"
        fill="url(#color-1)"></path>
      <path
        d="M38.137,9.853l-0.075,3.79l-3.457,-0.252c-2.509,-2.501 -5.208,-3.472 -6.72,-3.88l1.298,-4.828c4.05,1.066 7.111,3.311 8.954,5.17z"
        fill="url(#color-2)"></path>
      <path
        d="M43.317,18.817l-1.96,3.245l-2.868,-1.947c-0.923,-3.42 -2.774,-5.611 -3.88,-6.72l3.538,-3.532c2.974,2.948 4.503,6.422 5.17,8.954z"
        fill="url(#color-3)"></path>
      <path
        d="M43.32,29.17l-3.32,1.83l-1.51,-3.12c0.911,-3.423 0.403,-6.246 0,-7.76l4.83,-1.29c1.102,4.041 0.689,7.814 0,10.34z"
        fill="url(#color-4)"></path>
      <path
        d="M38.147,38.137l-3.79,-0.075l0.252,-3.457c2.501,-2.509 3.472,-5.208 3.88,-6.72l4.828,1.298c-1.066,4.05 -3.311,7.111 -5.17,8.954z"
        fill="url(#color-5)"></path>
      <path
        d="M29.183,43.317l-3.245,-1.96l1.947,-2.868c3.42,-0.923 5.611,-2.774 6.72,-3.88l3.532,3.538c-2.948,2.974 -6.422,4.503 -8.954,5.17z"
        fill="url(#color-6)"></path>
      <path
        d="M18.83,43.32l-1.83,-3.32l3.12,-1.51c3.423,0.911 6.246,0.403 7.76,0l1.29,4.83c-4.041,1.102 -7.814,0.689 -10.34,0z"
        fill="url(#color-7)"></path>
      <path
        d="M9.863,38.147l0.075,-3.79l3.457,0.252c2.509,2.501 5.208,3.472 6.72,3.88l-1.298,4.828c-4.05,-1.066 -7.111,-3.311 -8.954,-5.17z"
        fill="url(#color-8)"></path>
      <path
        d="M4.683,29.183l1.96,-3.245l2.868,1.947c0.923,3.42 2.774,5.611 3.88,6.72l-3.538,3.532c-2.974,-2.948 -4.503,-6.422 -5.17,-8.954z"
        fill="url(#color-9)"></path>
      <path
        d="M4.68,18.83l3.32,-1.83l1.51,3.12c-0.911,3.423 -0.403,6.246 0,7.76l-4.83,1.29c-1.102,-4.041 -0.689,-7.814 0,-10.34z"
        fill="url(#color-10)"></path>
      <path
        d="M9.853,9.863l3.79,0.075l-0.252,3.457c-2.501,2.509 -3.472,5.208 -3.88,6.72l-4.828,-1.298c1.066,-4.05 3.311,-7.111 5.17,-8.954z"
        fill="url(#color-11)"></path>
      <path
        d="M18.817,4.683l1.298,4.828c-3.42,0.923 -5.611,2.774 -6.72,3.88l-3.532,-3.538c2.948,-2.974 6.422,-4.503 8.954,-5.17z"
        fill="url(#color-12)"></path>
    </g>
  </g>
  <g fill="#000000" fill-rule="nonzero" stroke="none" stroke-width="1" stroke-linecap="butt"
    stroke-linejoin="miter" stroke-miterlimit="10" stroke-dasharray="" stroke-dashoffset="0"
    font-family="none" font-weight="none" font-size="none" text-anchor="none"
    style="mix-blend-mode: normal">
    <g>
      <path
        d="M87.10333,131.47833v5.67h-13.5v13.95h-7.03v-34.12h22.22v5.69h-15.19v8.81zM107.28333,151.09833l-0.19,-2.58c-1.67333,2.03333 -3.98667,3.05 -6.94,3.05v0c-2.72,0 -4.79333,-0.78 -6.22,-2.34c-1.42667,-1.56667 -2.15667,-3.85667 -2.19,-6.87v0v-16.62h6.77v16.38c0,2.64 1.20333,3.96 3.61,3.96v0c2.3,0 3.88,-0.79667 4.74,-2.39v0v-17.95h6.79v25.36zM118.62333,125.73833h6.38l0.21,2.93c1.81333,-2.26667 4.24333,-3.4 7.29,-3.4v0c2.68667,0 4.68667,0.79 6,2.37c1.31333,1.58 1.98333,3.94 2.01,7.08v0v16.38h-6.77v-16.22c0,-1.43333 -0.31333,-2.47667 -0.94,-3.13c-0.62667,-0.64667 -1.66667,-0.97 -3.12,-0.97v0c-1.90667,0 -3.33333,0.81333 -4.28,2.44v0v17.88h-6.78zM144.59333,138.22833v0c0,-3.95333 0.88667,-7.1 2.66,-9.44c1.77333,-2.34667 4.2,-3.52 7.28,-3.52v0c2.46667,0 4.50667,0.92333 6.12,2.77v0v-12.94h6.79v36h-6.12l-0.32,-2.7c-1.68667,2.11333 -3.86,3.17 -6.52,3.17v0c-2.98667,0 -5.38,-1.17667 -7.18,-3.53c-1.80667,-2.35333 -2.71,-5.62333 -2.71,-9.81zM151.36333,138.72833v0c0,2.37333 0.41667,4.19333 1.25,5.46c0.82667,1.26 2.03,1.89 3.61,1.89v0c2.09333,0 3.57,-0.88 4.43,-2.64v0v-10.01c-0.84667,-1.76667 -2.31,-2.65 -4.39,-2.65v0c-3.26667,0 -4.9,2.65 -4.9,7.95zM178.95333,116.97833l6.4,11.76l6.4,-11.76h8.08l-9.93,16.92l10.19,17.2h-8.18l-6.56,-11.95l-6.56,11.95h-8.18l10.19,-17.2l-9.94,-16.92z"></path>
    </g>
  </g>
</svg>